<?xml version="1.0" standalone="no"?>
<!DOCTYPE svg PUBLIC "-//W3C//DTD SVG 20010904//EN"
 "http://www.w3.org/TR/2001/REC-SVG-20010904/DTD/svg10.dtd">
<svg version="1.0" xmlns="http://www.w3.org/2000/svg"
 width="700.000000pt" height="700.000000pt" viewBox="0 0 700.000000 700.000000"
 preserveAspectRatio="xMidYMid meet">
<metadata>
Created by potrace 1.11, written by Peter Selinger 2001-2013
</metadata>
<g transform="translate(0.000000,700.000000) scale(0.100000,-0.100000)"
fill="#000000" stroke="none">
<path d="M2625 6988 c-80 -29 -133 -77 -172 -156 l-26 -52 1 -3373 c1 -1854 1
-3380 1 -3389 1 -17 59 -18 1071 -18 l1070 0 0 23 c1 12 1 1533 1 3379 1 3087
-1 3362 -16 3407 -21 63 -81 132 -142 162 l-48 24 -855 2 c-591 1 -864 -2
-885 -9z"/>
<path d="M5226 5533 c-1 -1 -25 -3 -53 -4 -95 -4 -184 -64 -232 -154 l-26 -50
-3 -2663 -2 -2662 1045 0 1045 0 -2 2663 -3 2662 -22 45 c-37 76 -118 140
-201 156 -26 5 -1541 12 -1546 7z"/>
<path d="M257 3104 c-1 -1 -16 -4 -33 -7 -77 -12 -162 -79 -198 -157 -21 -45
-21 -48 -24 -1492 l-2 -1448 1045 0 1045 0 0 1429 c0 1010 -3 1438 -11 1462
-31 96 -80 153 -164 191 l-50 22 -803 1 c-442 0 -804 0 -805 -1z"/>
</g>
</svg>
